<svg xmlns="http://www.w3.org/2000/svg" viewBox="-47.082 0 94.165 100">
  <path fill="currentcolor" d="M-47.082 94.165c0 3.89 2.548 5.835 7.645 5.835 4.293 0 8.384-1.24 12.274-3.722 3.89-2.482 7.009-5.65 9.356-9.507 2.348-3.857 3.521-7.73 3.521-11.62 0-1.006-.134-2.113-.402-3.32 2.683-2.012 5.013-4.292 6.992-6.841 1.978-2.549 3.47-5.299 4.477-8.25l-1.308-1.61c-2.012 5.232-5.735 9.927-11.167 14.085-1.476-3.219-3.655-5.969-6.54-8.25 3.287-1.676 6.003-3.923 8.15-6.74 2.146-2.817 3.219-5.768 3.219-8.853 0-2.884-.94-5.114-2.817-6.69-1.878-1.576-4.259-2.364-7.143-2.364-4.292 0-7.83 1.844-10.614 5.533-2.783 3.689-5.449 9.02-7.998 15.996l1.912 1.61c2.75-5.835 5.282-10.329 7.595-13.481 2.314-3.152 4.846-4.729 7.596-4.729 1.476 0 2.532.453 3.169 1.359.637.905.956 2.028.956 3.37 0 1.744-.487 3.588-1.459 5.533-.973 1.945-2.381 3.689-4.225 5.231-1.845 1.543-4.008 2.65-6.49 3.32 2.952 2.147 5.064 4.192 6.339 6.137 1.274 1.945 1.978 4.024 2.112 6.238-2.28 1.475-5.164 3.219-8.652 5.231-3.957 2.28-6.991 4.158-9.104 5.634-2.113 1.475-3.873 3.119-5.282 4.93-1.408 1.81-2.112 3.789-2.112 5.935Zm13.028-.503c-2.784 1.677-5.047 2.515-6.791 2.515-.805 0-1.459-.218-1.962-.654-.503-.436-.754-1.123-.754-2.062 0-2.012 1.123-3.907 3.37-5.684 2.247-1.778 5.919-4.175 11.016-7.193l7.042-4.125c-.536 3.756-1.962 7.143-4.275 10.16-2.314 3.019-4.863 5.366-7.646 7.043Z"/>
  <path fill="currentcolor" d="M-5.433 72.435c.671 2.146 1.71 3.219 3.12 3.219 1.676 0 3.151-1.023 4.426-3.068 1.274-2.046 2.75-5.148 4.426-9.306 2.08-4.896 3.94-8.602 5.584-11.117 1.643-2.515 3.672-3.773 6.086-3.773 2.415 0 3.622 1.409 3.622 4.226 0 1.61-.503 4.057-1.51 7.344-.938 3.487-1.408 5.902-1.408 7.243 0 2.08.688 3.773 2.063 5.08 1.375 1.309 3.303 1.962 5.785 1.962 4.024 0 7.796-1.71 11.317-5.13 3.522-3.42 6.523-7.88 9.004-13.38l-1.61-1.71a45.055 45.055 0 0 1-5.03 8.047c-1.944 2.482-3.923 4.46-5.935 5.936-2.012 1.476-3.756 2.213-5.231 2.213-1.811 0-2.717-1.073-2.717-3.219 0-.604.084-1.291.252-2.062.168-.772.436-1.644.805-2.616.369-.973.62-1.593.754-1.861.805-2.08 1.409-3.79 1.811-5.131.403-1.341.604-2.783.604-4.326 0-2.683-.705-5.013-2.113-6.992-1.408-1.978-3.655-2.968-6.74-2.968-3.42 0-6.422 1.224-9.004 3.672-2.583 2.448-4.611 5.08-6.087 7.898-1.475 2.817-2.884 5.969-4.225 9.456-.47 1.275-.772 2.013-.906 2.214l-.1-2.113c0-5.365 1.14-11.066 3.42-17.103 3.89-2.28 7.663-5.818 11.318-10.613 3.655-4.796 6.606-9.776 8.853-14.94s3.37-9.289 3.37-12.374c0-1.811-.385-3.454-1.157-4.93C26.644.738 25.587 0 24.245 0 21.16 0 17.17 4.024 12.274 12.072 7.378 20.121 3.034 29.326-.755 39.688-4.544 50.05-6.439 58.25-6.439 64.286c0 3.286.336 6.002 1.006 8.149Zm20.524-43.461c-2.55 3.957-5.198 7.176-7.948 9.658a97.955 97.955 0 0 1 5.734-13.33c2.28-4.393 4.46-8.048 6.54-10.966 2.079-2.917 3.52-4.544 4.325-4.88 0 1.61-.804 4.276-2.414 7.999-1.61 3.722-3.689 7.562-6.237 11.519Z"/>
</svg>